<svg width="64" height="68" viewBox="0 0 64 68" fill="none" xmlns="http://www.w3.org/2000/svg">
<path d="M63.5849 24.9755C63.1349 24.6521 62.4983 24.7471 62.1665 25.1886L42.653 51.1553C39.5663 50.1829 36.3262 49.6232 33.0144 49.5274V30.1717L36.7286 26.5461C37.6575 26.7684 39.5561 27.1548 41.5405 27.1548C41.5405 27.1548 41.5405 27.1548 41.5414 27.1548C43.9622 27.1548 45.7792 26.5793 46.9413 25.4453C52.3298 20.1882 53.1389 15.7799 53.7861 12.2385C54.0108 11.01 54.2055 9.94934 54.5671 9.01642C54.7081 8.65279 54.6176 8.24065 54.3359 7.96575C54.0533 7.68961 53.631 7.60254 53.2591 7.74019C52.3031 8.09304 51.2165 8.28212 49.9587 8.50187C46.329 9.13542 41.8133 9.92364 36.4235 15.1807C33.7078 17.8315 34.8097 23.2834 35.2907 25.1488L33.0135 27.3708V0.991265C33.0139 0.443954 32.5605 0.000300034 31.9992 0.000300034C31.4379 0.000300034 30.9845 0.443539 30.9845 0.991265V15.1666L29.2104 13.4343C29.5967 11.8794 30.3462 7.81193 28.2543 5.7707C24.1079 1.72475 20.4892 1.09285 17.8458 0.631366C16.902 0.466758 16.087 0.32454 15.3825 0.0641527C15.0081 -0.073919 14.5874 0.0152267 14.3057 0.289712C14.0231 0.565026 13.933 0.976339 14.0737 1.34038C14.3405 2.02867 14.4863 2.82434 14.655 3.74565C15.1275 6.32423 15.7751 9.85605 19.9215 13.902C20.8513 14.8092 22.2896 15.2695 24.1954 15.2695C25.6338 15.2695 27.0152 15.0062 27.7725 14.832L30.9849 17.9654V39.3876L28.7082 37.1661C29.1892 35.3011 30.2914 29.8487 27.5757 27.1975C22.1864 21.9404 17.6694 21.1514 14.0401 20.5183C12.7815 20.2985 11.6949 20.1082 10.7397 19.7562C10.3649 19.6185 9.94466 19.7072 9.66294 19.9826C9.38079 20.2575 9.29028 20.6696 9.43093 21.0332C9.79297 21.9653 9.98716 23.0264 10.2124 24.2545C10.8612 27.7963 11.6686 32.2034 17.0575 37.4621C18.2193 38.5969 20.0367 39.172 22.4592 39.172C24.4436 39.172 26.3409 38.786 27.2702 38.5634L30.9853 42.1876V49.5274C27.6743 49.6228 24.4334 50.1829 21.3476 51.1553L1.83281 25.1874C1.5018 24.7467 0.866956 24.6517 0.414834 24.9747C-0.0372879 25.2981 -0.135021 25.9176 0.196846 26.3591L19.3521 51.8498C12.0871 54.6228 5.83562 59.7364 1.81879 66.5115C1.53792 66.9842 1.70364 67.5908 2.1889 67.864C2.67417 68.1381 3.29414 67.976 3.57501 67.5029C7.45247 60.9641 13.5438 56.0798 20.6031 53.5166L31.1825 67.592C31.1902 67.6024 31.2003 67.6082 31.2084 67.6194C31.2407 67.6588 31.276 67.6948 31.3151 67.7305C31.3346 67.7479 31.3533 67.7662 31.3737 67.7819C31.3835 67.7898 31.3907 67.7977 31.4005 67.8051C31.4149 67.8159 31.4311 67.8196 31.4464 67.8279C31.5097 67.8694 31.576 67.9017 31.6465 67.9274C31.6724 67.9361 31.6975 67.9469 31.7234 67.9536C31.8127 67.9789 31.904 67.9958 31.9967 67.9958C31.9979 67.9958 31.9988 67.9967 32.0001 67.9967C32.0001 67.9967 32.0001 67.9967 32.0009 67.9967C32.0013 67.9967 32.0009 67.9967 32.0013 67.9967C32.0026 67.9967 32.0035 67.9958 32.0047 67.9958C32.0974 67.9958 32.1887 67.9797 32.2775 67.9536C32.3043 67.9469 32.329 67.9366 32.3549 67.9274C32.425 67.9013 32.4917 67.8673 32.5563 67.8271C32.5707 67.8184 32.586 67.8151 32.6001 67.8051C32.609 67.7981 32.6158 67.7902 32.6251 67.7831C32.6472 67.7661 32.6689 67.7467 32.6889 67.7272C32.7258 67.6932 32.7594 67.6588 32.7904 67.621C32.7994 67.6107 32.81 67.6036 32.8189 67.592L43.3974 53.5157C50.4585 56.0802 56.5506 60.9654 60.4268 67.5058C60.6146 67.823 60.9554 68 61.306 68C61.4781 68 61.6536 67.9569 61.8138 67.8673C62.2982 67.5945 62.4648 66.9883 62.1839 66.5148C58.1675 59.7373 51.9164 54.624 44.6493 51.8502L63.8046 26.3608C64.1343 25.9184 64.0374 25.2989 63.5849 24.9755ZM37.8594 16.5813C42.7983 11.7633 46.9673 11.0361 50.3165 10.4506C50.9416 10.3416 51.5505 10.2354 52.1403 10.1077C52.0094 10.6837 51.9011 11.2786 51.7885 11.8894C51.1906 15.1588 50.4444 19.2263 45.5072 24.0447C44.7496 24.7831 43.3779 25.1737 41.5418 25.1737H41.5409C39.8072 25.1737 38.0952 24.8296 37.2509 24.631C36.7291 22.5653 36.1032 18.2963 37.8594 16.5813ZM21.3565 12.5018C17.6609 8.89577 17.1259 5.9747 16.6534 3.39736C16.5914 3.05612 16.5302 2.72234 16.4626 2.39437C16.7979 2.4603 17.1399 2.52001 17.4892 2.58054C20.1306 3.04161 23.1238 3.56404 26.8198 7.17049C28.027 8.34804 27.6131 11.3844 27.2498 12.9168C26.5848 13.0669 25.4014 13.2884 24.1959 13.2884C22.8658 13.2892 21.8843 13.0176 21.3565 12.5018ZM18.4929 36.0627C13.5548 31.2439 12.8099 27.1756 12.2108 23.9066C12.0995 23.2959 11.9898 22.7013 11.8598 22.1254C12.4492 22.2531 13.0585 22.3592 13.684 22.4687C17.0337 23.0529 21.2031 23.781 26.1407 28.599C27.8974 30.3139 27.2719 34.5829 26.7492 36.6494C25.9053 36.848 24.1929 37.193 22.46 37.193C20.6214 37.1918 19.2501 36.8012 18.4929 36.0627ZM32.0001 65.3319L22.6236 52.854C25.6321 51.9733 28.7834 51.4919 32.0001 51.4919C35.2168 51.4919 38.3689 51.9733 41.3773 52.854L32.0001 65.3319Z" fill="#3C411E"/>
</svg>
