<svg width="69" height="69" viewBox="0 0 69 69" fill="none" xmlns="http://www.w3.org/2000/svg">
<path d="M60.6102 46.7618C60.2344 46.2497 59.3807 46.2497 59.0044 46.7618L51.474 57.0319C51.2527 57.3331 51.2194 57.7352 51.3894 58.0694C51.559 58.4044 51.9015 58.6156 52.2769 58.6156H58.8127V67.3398C58.8127 67.8894 59.2582 68.3352 59.8077 68.3352C60.3573 68.3352 60.8027 67.8898 60.8027 67.3398V58.6152H67.339C67.714 58.6152 68.0565 58.4044 68.2265 58.0689C68.3961 57.7352 68.3628 57.3331 68.1415 57.0314L60.6102 46.7618ZM54.2402 56.6244L59.8073 49.0331L65.374 56.6244H54.2402Z" fill="#3C411E"/>
<path d="M9.32922 46.7618C8.95505 46.2497 8.09838 46.2497 7.72421 46.7618L0.19293 57.0319C-0.0291541 57.3331 -0.0620709 57.7352 0.107513 58.0694C0.277097 58.4044 0.620016 58.6156 0.995018 58.6156H7.53046V67.3398C7.53046 67.8894 7.97588 68.3352 8.5263 68.3352C9.07547 68.3352 9.52131 67.8898 9.52131 67.3398V58.6152H16.0567C16.4318 58.6152 16.7751 58.4044 16.9443 58.0689C17.1138 57.7352 17.0809 57.3331 16.8588 57.0314L9.32922 46.7618ZM2.95919 56.6244L8.5263 49.0331L14.0934 56.6244H2.95919Z" fill="#3C411E"/>
<path d="M58.7394 35.5131C61.5206 36.6556 64.2432 37.9927 66.8365 39.5123C66.9944 39.6052 67.1673 39.6485 67.3386 39.6485C67.6794 39.6485 68.0123 39.4723 68.1978 39.1556C68.4753 38.6814 68.3165 38.071 67.8419 37.7943C65.3111 36.3114 62.6586 34.9993 59.9502 33.8631L66.6144 24.7755C66.939 24.3322 66.8432 23.7089 66.4003 23.3843C65.9586 23.0597 65.3348 23.1547 65.0086 23.5984L58.046 33.0922C56.411 32.4656 54.7469 31.901 53.0694 31.4064C54.6585 28.4176 55.5627 25.0118 55.5627 21.3968C55.5627 11.8567 49.2848 3.75793 40.646 1.00584C40.6093 0.991672 40.5735 0.978755 40.536 0.968338C38.5226 0.339585 36.3839 0 34.1668 0C22.3692 0 12.7708 9.59838 12.7708 21.3959C12.7708 25.0105 13.6754 28.4172 15.265 31.406C13.5854 31.9018 11.9208 32.4656 10.29 33.091L3.32663 23.5951C3.00205 23.1518 2.37913 23.0559 1.93621 23.3814C1.49287 23.7068 1.39704 24.3289 1.72246 24.7718L8.3879 33.8622C5.67956 34.9993 3.02705 36.3114 0.494118 37.7952C0.0199493 38.0727 -0.139635 38.6831 0.1387 39.1577C0.324117 39.4727 0.656202 39.6493 0.998287 39.6493C1.16912 39.6493 1.34204 39.606 1.50037 39.5127C4.09497 37.9927 6.81748 36.6556 9.59791 35.5127L33.3651 67.9274C33.3726 67.9382 33.3826 67.9436 33.3905 67.9545C33.4222 67.9945 33.4568 68.0303 33.4951 68.0661C33.5143 68.0841 33.5326 68.102 33.553 68.1182C33.5626 68.1257 33.5697 68.1345 33.5793 68.1411C33.5938 68.1524 33.6093 68.1557 33.6243 68.1641C33.6863 68.2066 33.7514 68.2386 33.8205 68.2641C33.8459 68.2736 33.8705 68.2836 33.8955 68.2907C33.983 68.3161 34.0726 68.3324 34.1634 68.3332C34.1647 68.3332 34.1655 68.3341 34.1668 68.3341C34.1668 68.3341 34.1668 68.3341 34.1672 68.3341C34.1676 68.3341 34.1672 68.3341 34.1676 68.3341C34.1688 68.3341 34.1697 68.3332 34.1709 68.3332C34.2618 68.3324 34.3514 68.317 34.4389 68.2907C34.4651 68.2832 34.4889 68.2736 34.5143 68.2641C34.5839 68.2382 34.648 68.2045 34.7114 68.1632C34.7255 68.1545 34.7409 68.1511 34.7547 68.1411C34.7634 68.1353 34.7697 68.1266 34.7789 68.1191C34.8009 68.102 34.8222 68.0824 34.8418 68.0632C34.8776 68.0291 34.9114 67.9945 34.9409 67.957C34.9497 67.9457 34.9605 67.9395 34.9693 67.9274L58.7394 35.5131ZM53.5719 21.3963C53.5719 29.9585 47.9964 37.2381 40.2868 39.8068C32.3301 37.1672 27.0022 29.8143 27.0022 21.3963C27.0022 12.9788 32.3309 5.62544 40.2885 2.98585C47.9964 5.55544 53.5719 12.8351 53.5719 21.3963ZM34.1668 1.99084C35.1159 1.99084 36.0484 2.06251 36.9618 2.19501C29.7026 5.74544 25.0117 13.103 25.0117 21.3968C25.0117 29.691 29.7026 37.0481 36.9605 40.5981C36.048 40.7298 35.1155 40.8023 34.1668 40.8023C23.4663 40.8023 14.7613 32.0968 14.7613 21.3968C14.7613 10.6967 23.4667 1.99084 34.1668 1.99084ZM16.3171 33.1743C20.1505 38.9635 26.7188 42.7914 34.1672 42.7914C36.3939 42.7914 38.5401 42.4494 40.5597 41.8148C40.5851 41.8073 40.6097 41.7994 40.6351 41.7894C45.3406 40.2943 49.3435 37.211 52.016 33.1731C53.6344 33.6364 55.2431 34.1652 56.824 34.7556L34.1668 65.6557L11.5108 34.756C13.0888 34.1672 14.6979 33.6381 16.3171 33.1743Z" fill="#3C411E"/>
</svg>
