<svg width="74" height="69" viewBox="0 0 74 69" fill="none" xmlns="http://www.w3.org/2000/svg">
<path d="M73.3078 17.9782C72.8345 17.6299 72.1663 17.7325 71.8188 18.2071L41.7431 59.2254C41.7302 59.2405 41.7212 59.2557 41.7087 59.2717L37.1669 65.4663L29.5297 55.0515C29.5137 55.0287 29.4985 55.0051 29.4802 54.9837L2.514 18.2071C2.16652 17.7338 1.50009 17.6308 1.02458 17.9782C0.550407 18.3266 0.447366 18.9931 0.795746 19.4677L25.9041 53.7106L17.1825 51.0431C16.6214 50.8696 16.0245 51.1872 15.8528 51.7506C15.6811 52.3144 15.9978 52.9095 16.5603 53.0812L28.0104 56.5824L30.0311 59.3391L16.5594 63.4599C15.9969 63.6312 15.6802 64.2276 15.8519 64.7896C15.9924 65.2491 16.4144 65.543 16.8712 65.543C16.9742 65.543 17.079 65.5288 17.1825 65.4966L31.3653 61.1577L36.3077 67.8974C36.3158 67.909 36.326 67.9157 36.335 67.9255C36.3684 67.9692 36.4068 68.0085 36.4474 68.0464C36.4679 68.0647 36.4866 68.0838 36.508 68.1017C36.5183 68.1093 36.5254 68.1186 36.5366 68.1267C36.5517 68.1378 36.5696 68.1414 36.5856 68.1516C36.6512 68.1958 36.7208 68.2301 36.794 68.2583C36.8212 68.2685 36.8475 68.2792 36.8747 68.2868C36.9679 68.314 37.0647 68.3314 37.162 68.3323C37.1633 68.3323 37.1642 68.3332 37.1655 68.3332C37.1655 68.3332 37.1655 68.3332 37.1664 68.3332C37.1669 68.3332 37.1664 68.3332 37.1669 68.3332C37.1682 68.3332 37.1691 68.3323 37.1704 68.3323C37.2677 68.3314 37.3636 68.3149 37.4568 68.2868C37.4849 68.2788 37.5108 68.2685 37.538 68.2583C37.6116 68.2301 37.6807 68.1945 37.7485 68.1512C37.7637 68.1409 37.7807 68.1374 37.7949 68.1276C37.8043 68.12 37.8114 68.1106 37.8213 68.1039C37.8445 68.0847 37.8672 68.0638 37.8891 68.0428C37.927 68.0071 37.9627 67.9692 37.9948 67.9295C38.0041 67.9175 38.0153 67.9099 38.0247 67.8974L42.9662 61.1577L57.1499 65.4971C57.2525 65.5288 57.3582 65.543 57.4617 65.543C57.9171 65.543 58.3391 65.2495 58.48 64.7901C58.6522 64.2267 58.3364 63.6312 57.7726 63.4603L44.3013 59.3396L46.3215 56.5828L57.7726 53.0812C58.3355 52.9095 58.6522 52.3135 58.48 51.751C58.3074 51.1876 57.7079 50.87 57.1503 51.0436L48.4288 53.7106L73.5371 19.4681C73.8846 18.9931 73.7829 18.3266 73.3078 17.9782Z" fill="#3C411E"/>
<path d="M45.5052 15.5686C44.6086 11.0986 41.8046 4.79337 33.5274 0.137302C33.1719 -0.0634287 32.7307 -0.0429094 32.3966 0.191277C32.0607 0.424571 31.889 0.830047 31.9541 1.23374C31.9612 1.28236 32.7097 6.2248 29.9329 12.3252C29.0765 14.2085 27.5005 16.4309 25.8327 18.7839C23.5573 21.9942 21.2047 25.313 20.4727 28.1486C19.2795 32.7672 19.7229 37.008 21.7543 40.4138C24.1474 44.4261 28.6594 47.2779 35.1667 48.8886C35.2514 48.9096 35.3371 48.9194 35.4227 48.9194C35.7131 48.9194 35.9955 48.7999 36.1998 48.5826C36.4638 48.302 36.5553 47.8997 36.4393 47.5326C36.4201 47.4719 34.597 41.3541 41.5352 32.4742C45.2001 27.7802 46.6842 21.4612 45.5052 15.5686ZM34.1135 46.3955C29.0234 44.8865 25.4847 42.5107 23.5827 39.3227C21.8248 36.3755 21.4724 32.7945 22.5345 28.6808C23.1688 26.2252 25.4062 23.0693 27.5706 20.0164C29.2986 17.5782 30.9313 15.276 31.8725 13.2085C33.8022 8.96947 34.1773 5.24256 34.1849 3.02827C40.449 7.14326 42.6731 12.2739 43.4163 15.987C44.4757 21.2792 43.1442 26.9514 39.8553 31.1623C34.4012 38.1419 33.9146 43.6946 34.1135 46.3955Z" fill="#3C411E"/>
<path d="M41.6681 48.9194C41.7114 48.9194 41.7538 48.9163 41.7984 48.9118C42.1298 48.8699 49.9485 47.8297 53.4474 39.8598C56.9999 31.7672 50.5324 25.3625 50.4664 25.2983C50.1782 25.019 49.7549 24.9267 49.3771 25.0565C48.997 25.1872 48.7236 25.5218 48.6687 25.9201C48.6616 25.9718 47.9091 31.1828 43.9328 36.4054C38.9364 42.9729 40.5891 47.992 40.6613 48.2017C40.8112 48.6357 41.2198 48.9194 41.6681 48.9194ZM45.6283 37.6959C48.3422 34.1318 49.6648 30.6172 50.2826 28.4297C51.702 30.5088 53.5139 34.4097 51.4972 39.0029C49.1424 44.3651 44.5221 46.09 42.5072 46.6003C42.3488 45.0872 42.5036 41.8024 45.6283 37.6959Z" fill="#3C411E"/>
</svg>
