<svg width="626" height="116" viewBox="0 0 626 116" fill="none" xmlns="http://www.w3.org/2000/svg">
<path d="M41.1718 8.33239H0V0.816901H90.6761V8.33239H49.5042V115.183H41.1718V8.33239Z" fill="#25140F"/>
<path d="M158.105 116C146.886 116 136.757 113.495 127.716 108.485C118.785 103.474 111.705 96.5578 106.477 87.7352C101.357 78.9127 98.7979 69.001 98.7979 58C98.7979 46.9991 101.357 37.0873 106.477 28.2648C111.705 19.4423 118.785 12.5258 127.716 7.51549C136.757 2.50516 146.886 0 158.105 0C166.383 0 174.007 1.3615 180.978 4.08451C187.949 6.6986 193.885 10.6197 198.787 15.8479L193.558 21.2394C184.409 12.1991 172.7 7.67887 158.432 7.67887C148.847 7.67887 140.133 9.85728 132.291 14.2141C124.449 18.5709 118.295 24.616 113.829 32.3493C109.363 39.9737 107.13 48.524 107.13 58C107.13 67.4761 109.363 76.0808 113.829 83.8141C118.295 91.4385 124.449 97.4291 132.291 101.786C140.133 106.143 148.847 108.321 158.432 108.321C172.591 108.321 184.3 103.746 193.558 94.5972L198.787 99.9887C193.885 105.217 187.895 109.193 180.815 111.916C173.844 114.639 166.274 116 158.105 116Z" fill="#25140F"/>
<path d="M319.822 0.816901V115.183H311.49V60.7775H235.028V115.183H226.695V0.816901H235.028V53.4254H311.49V0.816901H319.822Z" fill="#25140F"/>
<path d="M438.674 107.668V115.183H359.761V0.816901H436.223V8.33239H368.093V53.4254H429.034V60.7775H368.093V107.668H438.674Z" fill="#25140F"/>
<path d="M469.053 0.816901H477.386V115.183H469.053V0.816901Z" fill="#25140F"/>
<path d="M565.762 116C554.543 116 544.413 113.495 535.373 108.485C526.333 103.365 519.198 96.3944 513.97 87.5718C508.851 78.7493 506.291 68.892 506.291 58C506.291 47.108 508.851 37.2507 513.97 28.4282C519.198 19.6056 526.333 12.6892 535.373 7.67887C544.413 2.55962 554.543 0 565.762 0C576.98 0 587.11 2.50516 596.15 7.51549C605.191 12.5258 612.271 19.4423 617.39 28.2648C622.618 37.0873 625.232 46.9991 625.232 58C625.232 69.001 622.618 78.9127 617.39 87.7352C612.271 96.5578 605.191 103.474 596.15 108.485C587.11 113.495 576.98 116 565.762 116ZM565.762 108.321C575.347 108.321 584.006 106.143 591.739 101.786C599.473 97.4291 605.572 91.4385 610.038 83.8141C614.503 76.0808 616.736 67.4761 616.736 58C616.736 48.524 614.503 39.9737 610.038 32.3493C605.572 24.616 599.473 18.5709 591.739 14.2141C584.006 9.85728 575.347 7.67887 565.762 7.67887C556.177 7.67887 547.463 9.85728 539.621 14.2141C531.888 18.5709 525.788 24.616 521.322 32.3493C516.857 39.9737 514.624 48.524 514.624 58C514.624 67.4761 516.857 76.0808 521.322 83.8141C525.788 91.4385 531.888 97.4291 539.621 101.786C547.463 106.143 556.177 108.321 565.762 108.321Z" fill="#25140F"/>
<path d="M595.942 67.5848C595.967 67.5287 595.987 67.4714 596.001 67.4126C596.933 64.4392 597.437 61.2764 597.437 57.9998C597.437 54.7248 596.934 51.5658 596.003 48.5943C595.99 48.5324 595.969 48.4729 595.942 48.4149C591.88 35.7255 579.984 26.509 565.968 26.4913C565.966 26.4913 565.964 26.4913 565.961 26.4913C565.95 26.4913 565.939 26.491 565.928 26.491C565.917 26.491 565.906 26.4913 565.895 26.4913C565.894 26.4913 565.893 26.4913 565.891 26.4913C551.871 26.5079 539.972 35.7289 535.912 48.4225C535.89 48.4725 535.872 48.5236 535.86 48.5763C534.925 51.5531 534.419 54.7183 534.419 57.9998C534.419 61.2787 534.924 64.4415 535.858 67.4161C535.871 67.4722 535.889 67.5264 535.913 67.5786C539.976 80.283 551.894 89.5091 565.928 89.5091H565.929C579.963 89.5083 591.877 80.2857 595.942 67.5848ZM595.602 57.9998C595.602 60.4591 595.297 62.8484 594.729 65.1347L589.499 58.0017L594.73 50.8676C595.297 53.1535 595.602 55.5417 595.602 57.9998ZM594.083 48.6454L588.36 56.4497L567.787 28.3907C580.068 29.1539 590.342 37.4174 594.083 48.6454ZM578.289 58.5044C578.289 64.8185 573.455 71.8408 566.846 72.4449V37.1034C570.357 41.8194 578.289 53.0763 578.289 58.5044ZM565.01 72.4449C558.402 71.8408 553.566 64.8177 553.566 58.5044C553.566 53.0782 561.499 41.8202 565.01 37.1046V72.4449ZM566.846 74.287C574.506 73.6884 580.125 65.6889 580.125 58.5044C580.125 50.9383 567.198 34.5101 566.649 33.8142C566.64 33.8042 566.63 33.7973 566.621 33.7877C566.587 33.7477 566.55 33.7127 566.511 33.6797C566.505 33.6758 566.5 33.6708 566.495 33.6666C566.339 33.5425 566.144 33.4656 565.929 33.4656C565.714 33.4656 565.519 33.5425 565.362 33.6658C565.357 33.6697 565.352 33.6747 565.348 33.6785C565.307 33.712 565.27 33.7485 565.236 33.788C565.228 33.7973 565.218 33.8038 565.209 33.8138C564.659 34.5097 551.732 50.9371 551.732 58.504C551.732 65.6885 557.351 73.6884 565.011 74.2866V85.7864L544.635 57.9983L565.93 28.9602L587.223 58.001L566.847 85.7891V74.287H566.846ZM564.071 28.39L543.498 56.4466L537.776 48.6423C541.517 37.4147 551.792 29.1531 564.071 28.39ZM536.255 57.9998C536.255 55.5398 536.561 53.1505 537.128 50.863L542.36 57.9987L537.127 65.1336C536.561 62.8473 536.255 60.4587 536.255 57.9998ZM537.774 67.355L543.498 59.5499L564.071 87.6093C551.79 86.8462 541.515 78.5834 537.774 67.355ZM567.787 87.6097L588.36 59.5534L594.082 67.3569C590.34 78.5838 580.066 86.8458 567.787 87.6097Z" fill="#25140F"/>
</svg>
